<svg width="35" height="36" viewBox="0 0 35 36" fill="none" xmlns="http://www.w3.org/2000/svg">
<path d="M14.2538 10.4097C13.9836 10.3684 13.7079 10.435 13.4863 10.5952C13.2647 10.7553 13.115 10.9962 13.0694 11.2658C13.0239 11.5353 13.0861 11.812 13.2427 12.0361C13.3994 12.2602 13.6378 12.4137 13.9066 12.4636L21.6506 13.7707L9.98622 21.9382C9.75991 22.0967 9.60583 22.3385 9.55785 22.6106C9.50988 22.8827 9.57195 23.1627 9.73041 23.389C9.88887 23.6153 10.1307 23.7694 10.4028 23.8173C10.6749 23.8653 10.9549 23.8032 11.1812 23.6448L22.8404 15.4809L21.4211 23.1953C21.376 23.465 21.4387 23.7416 21.5957 23.9654C21.7527 24.1892 21.9914 24.3423 22.2603 24.3917C22.5292 24.4411 22.8068 24.3828 23.0331 24.2293C23.2594 24.0759 23.4163 23.8396 23.4699 23.5716L25.3029 13.6129C25.334 13.4433 25.3311 13.2691 25.2944 13.1005C25.2576 12.932 25.1878 12.7724 25.0888 12.6311C24.9899 12.4898 24.8638 12.3695 24.718 12.2773C24.5722 12.1852 24.4095 12.1229 24.2394 12.0941L14.2538 10.4097Z" fill="#F0EDE5"/>
</svg>
