<svg width="30" height="30" viewBox="0 0 30 30" fill="none" xmlns="http://www.w3.org/2000/svg">
<path fill-rule="evenodd" clip-rule="evenodd" d="M14.0625 0C14.3111 0 14.5496 0.0987721 14.7254 0.274587C14.9012 0.450403 15 0.68886 15 0.9375V12.1875C15 12.4361 14.9012 12.6746 14.7254 12.8504C14.5496 13.0262 14.3111 13.125 14.0625 13.125C13.8138 13.125 13.5754 13.0262 13.3996 12.8504C13.2237 12.6746 13.125 12.4361 13.125 12.1875V0.9375C13.125 0.68886 13.2237 0.450403 13.3996 0.274587C13.5754 0.0987721 13.8138 0 14.0625 0ZM10.2375 3.43125C10.2888 3.54327 10.3175 3.66431 10.322 3.78743C10.3264 3.91055 10.3066 4.03335 10.2636 4.14881C10.2206 4.26426 10.1552 4.3701 10.0713 4.46029C9.98733 4.55047 9.88643 4.62322 9.77435 4.67438C7.63562 5.65439 5.89584 7.33561 4.84319 9.43954C3.79054 11.5435 3.48819 13.9439 3.98623 16.2431C4.48357 18.5416 5.75429 20.5999 7.58623 22.0744C8.72435 22.9892 10.0437 23.652 11.457 24.019C12.8703 24.386 14.3454 24.4488 15.7848 24.2033C17.2242 23.9579 18.5951 23.4097 19.807 22.5951C21.0188 21.7804 22.0439 20.7178 22.8145 19.4775C23.5851 18.2373 24.0837 16.8475 24.2773 15.4003C24.471 13.953 24.3552 12.4811 23.9377 11.0818C23.5202 9.6826 22.8105 8.38792 21.8554 7.28338C20.9004 6.17883 19.7217 5.28957 18.3975 4.67438C18.1717 4.56995 17.9967 4.38011 17.9109 4.14663C17.8251 3.91314 17.8355 3.65514 17.94 3.42938C18.0444 3.20361 18.2342 3.02858 18.4677 2.94278C18.7012 2.85698 18.9592 2.86745 19.185 2.97188C21.7111 4.13273 23.7627 6.12479 24.9975 8.61563C26.232 11.1059 26.5787 13.9432 25.9803 16.6576C25.3818 19.3719 23.8741 21.8003 21.7069 23.5406C19.5379 25.2772 16.8414 26.2218 14.0629 26.2184C11.2845 26.215 8.59028 25.2638 6.4256 23.5219C4.26672 21.77 2.76617 19.3373 2.16935 16.6219C1.57904 13.9036 1.93632 11.0653 3.18185 8.57813C4.42103 6.08843 6.48042 4.10189 9.0131 2.95313C9.12512 2.90184 9.24616 2.87313 9.36928 2.86865C9.49241 2.86417 9.61521 2.88401 9.73066 2.92702C9.84611 2.97003 9.95196 3.03538 10.0421 3.11932C10.1323 3.20327 10.2051 3.30417 10.2562 3.41625L10.2375 3.43125Z" fill="white"/>
</svg>
