<svg width="240" height="62" viewBox="0 0 240 62" fill="none" xmlns="http://www.w3.org/2000/svg">
<path d="M13.45 38.6C16.1833 38.1 18.7833 37.85 21.25 37.85C23.75 37.85 26.0333 38.0667 28.1 38.5C28.8 37.1667 29.15 36 29.15 35C29.15 32.9 27.7667 31.85 25 31.85C22.6333 31.85 20.4167 32.5 18.35 33.8C16.3167 35.0667 14.6833 36.6667 13.45 38.6ZM15.85 49.95C17.0833 50.4167 18.6167 50.65 20.45 50.65C25.2833 50.65 30.4 48.2833 35.8 43.55C34.2 41.75 32.0167 40.4167 29.25 39.55C28.0833 41.65 26.3167 43.65 23.95 45.55C21.5833 47.45 18.8833 48.9167 15.85 49.95ZM10.85 44.35C10.85 42.7167 11.3 41.0667 12.2 39.4C8.86667 40.2333 6.2 41.4333 4.2 43C2.2 44.5333 1.2 46.0167 1.2 47.45C1.2 48.45 1.73333 49.2667 2.8 49.9C3.9 50.5 5.46667 50.8 7.5 50.8C9.56667 50.8 11.65 50.4833 13.75 49.85C11.8167 48.5833 10.85 46.75 10.85 44.35ZM27.75 39.1C25.5833 38.6 23.25 38.35 20.75 38.35C18.2833 38.35 15.7167 38.6333 13.05 39.2C12.0833 40.8667 11.6 42.5333 11.6 44.2C11.6 46.6 12.65 48.3667 14.75 49.5C17.55 48.4667 20.1167 46.9833 22.45 45.05C24.7833 43.1167 26.55 41.1333 27.75 39.1ZM63.8 51.45C66.4 51.45 68.8333 50.6667 71.1 49.1C73.4 47.5 75.1333 45.7167 76.3 43.75C77.4667 41.7833 78.05 40.05 78.05 38.55C78.05 36.65 77.2167 35.7 75.55 35.7C73.7833 35.7 71.9333 36.5333 70 38.2C68.0667 39.8333 66.45 41.8667 65.15 44.3C63.8833 46.7333 63.25 49.0167 63.25 51.15V51.4C63.35 51.4333 63.5333 51.45 63.8 51.45ZM32.5 22.95L32.55 23.8H33.25C36.25 23.8 39.1333 23.3833 41.9 22.55C44.7 21.6833 47.0167 20.6167 48.85 19.35C50.6833 18.0833 52.1333 16.75 53.2 15.35C54.3 13.9167 54.85 12.6333 54.85 11.5C54.85 10.3667 54.3667 9.48333 53.4 8.85C52.4667 8.18333 51.0667 7.85 49.2 7.85C46.3667 7.85 43.6333 8.68333 41 10.35C38.3667 12.0167 36.2833 14.0167 34.75 16.35C33.25 18.6833 32.5 20.8833 32.5 22.95ZM40.65 0.249997L40.8 0.849998C35.6 1.58333 31.25 3.56667 27.75 6.8C24.2833 10 22.55 13.2333 22.55 16.5C22.55 18.4333 23.25 20.05 24.65 21.35C26.05 22.6167 28.15 23.4 30.95 23.7C30.8833 23.1 30.85 22.6333 30.85 22.3C30.85 20.6333 31.3167 18.9167 32.25 17.15C33.1833 15.35 34.45 13.7 36.05 12.2C37.65 10.6667 39.65 9.41666 42.05 8.45C44.45 7.45 46.8167 6.95 49.15 6.95C51.5167 6.95 53.2 7.33333 54.2 8.1C55.2333 8.83333 55.75 9.85 55.75 11.15C55.75 12.45 55.2 13.8667 54.1 15.4C53 16.9 51.5 18.3333 49.6 19.7C47.7 21.0667 45.2667 22.2 42.3 23.1C39.3667 24 36.25 24.45 32.95 24.45H32.65C33.3833 27.2833 35.8333 28.7 40 28.7C42.1333 28.7 44.6833 28.0667 47.65 26.8C50.6167 25.5333 53.6667 23.6 56.8 21L57.1 21.4C56.1 22.2667 54.8333 23.2333 53.3 24.3C51.7667 25.3333 49.6667 26.4167 47 27.55C44.3333 28.6833 41.9167 29.25 39.75 29.25C34.95 29.25 32.0833 27.6333 31.15 24.4C28.05 24.1667 25.7 23.35 24.1 21.95C22.5333 20.55 21.75 18.8 21.75 16.7C21.75 13.3333 23.5167 9.98333 27.05 6.65C30.6167 3.31666 35.15 1.18333 40.65 0.249997ZM72.2 58.15C73.2667 58.15 74.4 57.95 75.6 57.55L76 57.8C74.9667 58.3667 73.4667 58.65 71.5 58.65C68.5333 58.65 66.3167 58.0167 64.85 56.75C63.4167 55.5167 62.65 53.85 62.55 51.75C61.1833 51.4167 60.0667 50.6667 59.2 49.5C58.3333 48.3 57.9 46.9333 57.9 45.4C57.9 43.8333 58.2833 42.1833 59.05 40.45C59.8167 38.7167 60.7333 37.0667 61.8 35.5C62.9 33.9333 64.35 32.1667 66.15 30.2C67.95 28.2333 69.5333 26.5667 70.9 25.2C72.2667 23.8333 74 22.2333 76.1 20.4C78.9667 17.8667 81.7833 15.4667 84.55 13.2L84.45 13.1C74.3167 19.2667 61.8 30.3667 46.9 46.4L44.1 50.05C43.9333 50.15 43.7833 50.2 43.65 50.2C43.5167 50.2 43.45 50.1 43.45 49.9L44.05 48.85L49.05 40.95C52.2833 35.55 54.55 31.8 55.85 29.7C60.4167 22.2667 64.6333 16.8 68.5 13.3C67.9333 13.3 66.4 14.4667 63.9 16.8L62.65 18C51.2833 29.7 42.7833 38.0833 37.15 43.15C38.85 44.95 39.7 46.8833 39.7 48.95C39.7 51.5167 38.3333 53.85 35.6 55.95C32.9 58.0833 28.9 59.55 23.6 60.35V59.8C28.2333 59.0667 31.7833 57.6667 34.25 55.6C36.7167 53.5667 37.95 51.3 37.95 48.8C37.95 47.1333 37.3667 45.5333 36.2 44C33.5 46.3333 30.8667 48.1333 28.3 49.4C25.7333 50.6667 23.1667 51.3 20.6 51.3C18.0333 51.3 16.05 50.9667 14.65 50.3C12.2167 51 9.81667 51.35 7.45 51.35C5.08333 51.35 3.26667 50.9667 2 50.2C0.733333 49.4667 0.0999999 48.5167 0.0999999 47.35C0.0999999 45.75 1.2 44.1333 3.4 42.5C5.6 40.8333 8.65 39.5833 12.55 38.75C13.85 36.5833 15.65 34.7833 17.95 33.35C20.2833 31.8833 22.8333 31.15 25.6 31.15C27.3 31.15 28.5667 31.5167 29.4 32.25C30.2333 32.95 30.65 33.9 30.65 35.1C30.65 36.3 30.3 37.5667 29.6 38.9C32.6333 39.8 35 41.0833 36.7 42.75C36.9667 42.4833 37.8833 41.6333 39.45 40.2C41.0167 38.7667 43.8 36.05 47.8 32.05C51.8333 28.05 55.2333 24.6333 58 21.8L62.1 17.6C66.3667 13.4333 70.0167 11.0167 73.05 10.35C73.4167 10.35 73.6 10.45 73.6 10.65C73.6 10.8167 73.5 10.9333 73.3 11C71.7667 11.4667 70.3333 12.5 69 14.1C67.6667 15.6667 66.05 17.8333 64.15 20.6C62.25 23.3667 60.8 25.5667 59.8 27.2L51.2 40.85C51.2 40.8833 51.25 40.9 51.35 40.9L52 40.4C58.3333 33.7333 64.2 28.05 69.6 23.35C75.0333 18.6167 80.7833 14.4833 86.85 10.95C88.15 10.0833 88.8833 9.65 89.05 9.65C89.25 9.65 89.35 9.75 89.35 9.95C89.35 10.15 89.3167 10.2833 89.25 10.35C89.1833 10.4167 88.4667 10.9833 87.1 12.05C85.7667 13.1167 84.5333 14.1667 83.4 15.2C82.2667 16.2333 81.2667 17.15 80.4 17.95C79.5333 18.75 78.1 20.1333 76.1 22.1C74.1 24.0667 72.4667 25.7333 71.2 27.1C69.9667 28.4333 68.5 30.1167 66.8 32.15C65.1 34.15 63.7667 35.9167 62.8 37.45C60.4 41.25 59.2 44.3667 59.2 46.8C59.2 48.3 59.7667 49.5333 60.9 50.5C61.3667 50.9 61.9167 51.1667 62.55 51.3C62.55 49 63.2167 46.5833 64.55 44.05C65.8833 41.4833 67.6 39.3167 69.7 37.55C71.8333 35.7833 73.9333 34.9 76 34.9C77.1667 34.9 78.1 35.2667 78.8 36C79.5333 36.7 79.9 37.7 79.9 39C79.9 40.3 79.4833 41.7 78.65 43.2C77.85 44.6667 76.7667 46.05 75.4 47.35C74.0333 48.65 72.3333 49.7333 70.3 50.6C68.3 51.5 66.2167 51.95 64.05 51.95L63.3 51.9C63.6667 56.0667 66.6333 58.15 72.2 58.15ZM82.0688 50.4C84.4688 50.4 86.8021 49.2 89.0688 46.8V46.75C89.0688 45.15 89.8354 43.65 91.3688 42.25C91.2688 41.8833 90.9854 41.7 90.5188 41.7C88.0521 41.7 85.8688 42.6333 83.9688 44.5C82.0688 46.3333 81.1187 47.95 81.1187 49.35C81.1187 50.05 81.4354 50.4 82.0688 50.4ZM89.8188 40.95C91.5854 40.95 92.4688 41.5333 92.4688 42.7C92.4688 43.7 91.8521 44.9 90.6188 46.3V46.7C90.6188 47.8 91.1021 48.35 92.0688 48.35C92.6688 48.35 93.3354 48.1 94.0688 47.6L96.5188 46L96.6188 46.75L94.3187 48.2C93.2521 48.9 92.2021 49.25 91.1688 49.25C90.1688 49.25 89.5021 48.7333 89.1688 47.7C86.5021 50.0667 83.9688 51.25 81.5688 51.25C80.1354 51.25 79.4187 50.5667 79.4187 49.2C79.4187 47.4667 80.4354 45.6667 82.4688 43.8C84.5021 41.9 86.9521 40.95 89.8188 40.95ZM97.7426 50.4C100.143 50.4 102.476 49.2 104.743 46.8V46.75C104.743 45.15 105.509 43.65 107.043 42.25C106.943 41.8833 106.659 41.7 106.193 41.7C103.726 41.7 101.543 42.6333 99.6426 44.5C97.7426 46.3333 96.7926 47.95 96.7926 49.35C96.7926 50.05 97.1092 50.4 97.7426 50.4ZM105.493 40.95C107.259 40.95 108.143 41.5333 108.143 42.7C108.143 43.7 107.526 44.9 106.293 46.3V46.7C106.293 47.8 106.776 48.35 107.743 48.35C108.343 48.35 109.009 48.1 109.743 47.6L112.193 46L112.293 46.75L109.993 48.2C108.926 48.9 107.876 49.25 106.843 49.25C105.843 49.25 105.176 48.7333 104.843 47.7C102.176 50.0667 99.6426 51.25 97.2426 51.25C95.8092 51.25 95.0926 50.5667 95.0926 49.2C95.0926 47.4667 96.1092 45.6667 98.1426 43.8C100.176 41.9 102.626 40.95 105.493 40.95ZM120.816 41C121.516 41 121.866 41.3833 121.866 42.15C121.866 42.8833 121.333 43.9667 120.266 45.4C124.066 42.7667 127.116 41.45 129.416 41.45C130.316 41.45 130.766 41.8333 130.766 42.6C130.766 43.3667 130.433 44.1667 129.766 45C129.1 45.8 128.366 46.5 127.566 47.1C125.433 48.6333 124.366 49.6 124.366 50C124.366 50.2333 124.55 50.35 124.916 50.35C125.316 50.35 125.966 50.15 126.866 49.75C127.766 49.35 128.566 48.95 129.266 48.55C129.966 48.1167 130.8 47.6 131.766 47C132.766 46.3667 133.3 46.0333 133.366 46L133.466 46.75C128.966 49.75 125.816 51.25 124.016 51.25C123.15 51.25 122.716 50.8333 122.716 50C122.716 49.4333 123.066 48.7667 123.766 48C124.5 47.2 125.283 46.4667 126.116 45.8C128.416 44.0667 129.566 42.9167 129.566 42.35C129.566 42.1833 129.383 42.1 129.016 42.1C127.783 42.1 125.95 42.7667 123.516 44.1C121.083 45.4333 118.383 47.6 115.416 50.6C115.216 50.8 114.833 50.9 114.266 50.9C113.733 50.9 113.466 50.75 113.466 50.45C113.466 50.35 114.616 49.1167 116.916 46.75C119.216 44.3833 120.366 42.85 120.366 42.15C120.366 41.9833 120.25 41.9 120.016 41.9C119.816 41.9 119.366 42.1167 118.666 42.55C118 42.9833 116.95 43.6833 115.516 44.65C114.116 45.5833 112.916 46.3667 111.916 47L111.766 46.3C112.266 45.9667 112.95 45.5 113.816 44.9C114.683 44.3 115.4 43.8167 115.966 43.45C116.533 43.05 117.15 42.6333 117.816 42.2C119.116 41.4 120.116 41 120.816 41ZM154.429 39.95C157.162 39.45 159.762 39.2 162.229 39.2C164.729 39.2 167.012 39.4167 169.079 39.85C169.779 38.5167 170.129 37.35 170.129 36.35C170.129 34.25 168.745 33.2 165.979 33.2C163.612 33.2 161.395 33.85 159.329 35.15C157.295 36.4167 155.662 38.0167 154.429 39.95ZM156.829 51.3C158.062 51.7667 159.612 52 161.479 52C163.379 52 165.862 51.2167 168.929 49.65C172.129 48.0167 174.629 46.3 176.429 44.5C174.929 42.9333 172.862 41.7333 170.229 40.9C169.062 43 167.295 45 164.929 46.9C162.562 48.8 159.862 50.2667 156.829 51.3ZM151.829 45.7C151.829 44.0333 152.279 42.3833 153.179 40.75C149.845 41.5833 147.179 42.7833 145.179 44.35C143.179 45.8833 142.179 47.3667 142.179 48.8C142.179 49.8 142.712 50.6 143.779 51.2C144.879 51.8333 146.462 52.15 148.529 52.15C150.595 52.15 152.662 51.8167 154.729 51.15C152.795 49.95 151.829 48.1333 151.829 45.7ZM168.729 40.45C166.562 39.95 164.229 39.7 161.729 39.7C159.262 39.7 156.695 39.9833 154.029 40.55C153.062 42.2167 152.579 43.8833 152.579 45.55C152.579 47.95 153.629 49.7 155.729 50.8C158.529 49.8 161.095 48.3333 163.429 46.4C165.762 44.4667 167.529 42.4833 168.729 40.45ZM177.229 23.95C177.229 26.0167 178.829 27.05 182.029 27.05C184.162 27.05 186.512 26.15 189.079 24.35C191.679 22.55 193.879 20.3333 195.679 17.7C197.479 15.0667 198.379 12.6333 198.379 10.4C198.379 10 198.312 9.46666 198.179 8.8C195.045 8.9 191.795 9.86666 188.429 11.7C185.095 13.5 182.395 15.5667 180.329 17.9C178.262 20.2333 177.229 22.25 177.229 23.95ZM221.029 4.4C225.029 2.4 228.812 1.4 232.379 1.4C234.745 1.4 236.562 1.8 237.829 2.6C239.095 3.36666 239.729 4.33333 239.729 5.5C239.729 7.3 238.412 8.95 235.779 10.45C233.145 11.95 229.595 12.7 225.129 12.7C222.595 12.7 218.145 12.05 211.779 10.75C205.445 9.45 201.162 8.78333 198.929 8.75C199.029 9.25 199.079 9.75 199.079 10.25C199.079 12.6167 198.162 15.1667 196.329 17.9C194.529 20.6333 192.245 22.95 189.479 24.85C186.712 26.7167 184.079 27.65 181.579 27.65C179.879 27.65 178.595 27.2833 177.729 26.55C176.862 25.7833 176.429 24.7333 176.429 23.4C176.429 22.0667 176.929 20.5833 177.929 18.95C178.962 17.2833 180.362 15.7 182.129 14.2C183.929 12.6667 186.229 11.35 189.029 10.25C191.829 9.11666 194.812 8.45 197.979 8.25C196.845 5.21666 193.312 3.7 187.379 3.7C185.712 3.7 183.945 3.98333 182.079 4.55C180.245 5.11667 178.595 5.8 177.129 6.6C174.162 8.26667 171.845 9.78333 170.179 11.15L169.179 12L168.879 11.4C169.445 10.8333 170.562 9.96666 172.229 8.8C173.895 7.63333 175.429 6.68333 176.829 5.95C178.262 5.21666 179.995 4.55 182.029 3.95C184.062 3.35 186.029 3.05 187.929 3.05C194.062 3.05 197.679 4.76666 198.779 8.2C199.079 8.16667 199.545 8.15 200.179 8.15C203.179 8.15 207.712 8.71667 213.779 9.85C219.845 10.95 223.912 11.5 225.979 11.5C229.879 11.5 233.012 10.9 235.379 9.7C237.779 8.5 238.979 7.18333 238.979 5.75C238.979 4.78333 238.362 4 237.129 3.4C235.929 2.76666 233.979 2.45 231.279 2.45C228.612 2.45 225.312 3.26666 221.379 4.9L221.029 4.4ZM214.629 12.25L214.479 12.75C210.245 14.2833 205.329 17.85 199.729 23.45C199.229 23.95 193.645 29.8667 182.979 41.2C181.945 42.2 180.462 43.4667 178.529 45C179.962 46.6333 180.679 48.4 180.679 50.3C180.679 52.8667 179.312 55.2 176.579 57.3C173.879 59.4333 169.879 60.9 164.579 61.7V61.15C169.212 60.4167 172.762 59.0167 175.229 56.95C177.695 54.9167 178.929 52.65 178.929 50.15C178.929 48.6167 178.445 47.1667 177.479 45.8C171.112 50.3667 165.595 52.65 160.929 52.65C158.795 52.65 157.029 52.3167 155.629 51.65C153.195 52.35 150.795 52.7 148.429 52.7C146.062 52.7 144.245 52.3167 142.979 51.55C141.712 50.8167 141.079 49.8667 141.079 48.7C141.079 47.1 142.179 45.4833 144.379 43.85C146.579 42.1833 149.629 40.9333 153.529 40.1C154.829 37.9333 156.629 36.1333 158.929 34.7C161.262 33.2333 163.812 32.5 166.579 32.5C168.279 32.5 169.545 32.8667 170.379 33.6C171.212 34.3 171.629 35.25 171.629 36.45C171.629 37.6167 171.279 38.8833 170.579 40.25C173.279 41.0167 175.512 42.1667 177.279 43.7L194.029 27C196.929 23.8 200.195 20.8167 203.829 18.05C207.462 15.25 211.062 13.3167 214.629 12.25ZM198.491 36.8C198.491 37.2667 198.224 37.7167 197.691 38.15C197.157 38.5833 196.657 38.8 196.191 38.8C195.757 38.8 195.541 38.6167 195.541 38.25C195.541 37.8833 195.807 37.4667 196.341 37C196.874 36.5 197.357 36.25 197.791 36.25C198.257 36.25 198.491 36.4333 198.491 36.8ZM194.241 42.2C189.741 46.2667 187.491 48.8167 187.491 49.85C187.491 50.1833 187.724 50.35 188.191 50.35C188.624 50.35 189.291 50.15 190.191 49.75C191.091 49.35 191.891 48.95 192.591 48.55C193.291 48.1167 194.124 47.6 195.091 47C196.091 46.3667 196.624 46.0333 196.691 46L196.791 46.75C195.257 47.75 193.507 48.75 191.541 49.75C189.574 50.75 188.091 51.25 187.091 51.25C186.057 51.25 185.541 50.8333 185.541 50C185.541 49.3 186.141 48.25 187.341 46.85C188.541 45.4167 189.741 44.1667 190.941 43.1L192.741 41.5C192.907 41.3667 193.224 41.3167 193.691 41.35C194.157 41.3833 194.391 41.55 194.391 41.85C194.391 41.9833 194.341 42.1 194.241 42.2ZM196.939 50.1C198.106 50.1 199.722 49.5 201.789 48.3C203.856 47.0667 205.639 45.8333 207.139 44.6C208.672 43.3333 209.439 42.6 209.439 42.4C209.439 42.1667 209.189 41.9833 208.689 41.85C208.222 41.7167 207.572 41.65 206.739 41.65C205.906 41.65 204.806 41.9833 203.439 42.65C202.072 43.2833 200.889 44.05 199.889 44.95C198.889 45.85 198.056 46.7333 197.389 47.6C196.722 48.4667 196.389 49.1 196.389 49.5C196.389 49.9 196.572 50.1 196.939 50.1ZM222.439 32.05C221.072 33.3833 219.456 34.9833 217.589 36.85C215.722 38.6833 214.239 40.1667 213.139 41.3C212.072 42.4 211.172 43.3 210.439 44C209.739 44.7 209.139 45.3167 208.639 45.85C208.139 46.35 207.606 46.9 207.039 47.5C206.472 48.1 206.039 48.6333 205.739 49.1C205.439 49.5333 205.289 49.8833 205.289 50.15C205.289 50.4167 205.406 50.55 205.639 50.55C207.239 50.55 210.239 49.0333 214.639 46L214.739 46.75C210.306 49.65 207.172 51.1 205.339 51.1C204.439 51.1 203.989 50.6833 203.989 49.85C203.989 48.95 204.522 47.8333 205.589 46.5C201.656 49.4 198.572 50.8667 196.339 50.9C195.539 50.9 195.139 50.4167 195.139 49.45C195.139 47.7167 196.239 45.8667 198.439 43.9C200.672 41.9333 203.606 40.95 207.239 40.95C208.472 40.95 209.522 41.2 210.389 41.7C210.556 41.5667 210.756 41.3833 210.989 41.15L231.889 20.9C232.089 20.7 232.489 20.6 233.089 20.6C233.689 20.6 233.989 20.7833 233.989 21.15C233.989 21.2833 233.906 21.4333 233.739 21.6C233.606 21.7333 233.122 22.1667 232.289 22.9C231.456 23.6333 230.639 24.3667 229.839 25.1C229.072 25.8 227.989 26.8 226.589 28.1C225.189 29.4 223.806 30.7167 222.439 32.05ZM224.908 41.6C224.908 41.3333 224.641 41.2 224.108 41.2C223.574 41.2 222.491 41.7167 220.858 42.75C219.224 43.75 217.841 44.8333 216.708 46C218.941 45.6333 220.858 44.9667 222.458 44C224.091 43 224.908 42.2 224.908 41.6ZM215.108 48.65C215.108 49.6167 215.774 50.1 217.108 50.1C219.641 50.1 222.791 48.7333 226.558 46L226.658 46.75C222.724 49.5167 219.358 50.9 216.558 50.9C214.558 50.9 213.558 50.0667 213.558 48.4C213.558 46.7333 214.791 45 217.258 43.2C219.758 41.4 222.324 40.5 224.958 40.5C225.791 40.5 226.208 40.75 226.208 41.25C226.208 42.05 225.274 43.0167 223.408 44.15C221.574 45.25 219.158 46.0667 216.158 46.6C215.458 47.4 215.108 48.0833 215.108 48.65ZM234.672 39.95C234.805 39.75 234.955 39.65 235.122 39.65C235.322 39.65 235.422 39.75 235.422 39.95C235.422 40.15 235.322 40.35 235.122 40.55C234.922 40.75 234.772 41.3667 234.672 42.4C234.605 43.4 234.355 44.6333 233.922 46.1C233.489 47.5333 232.739 48.8333 231.672 50C231.672 50.0667 231.739 50.1 231.872 50.1C232.105 50.1 232.955 49.7 234.422 48.9L235.122 48.55C236.389 47.85 237.739 47 239.172 46L239.272 46.75C234.072 50.1167 230.089 51.8 227.322 51.8C226.222 51.8 225.422 51.5667 224.922 51.1C224.389 50.6333 224.122 50.1167 224.122 49.55C224.122 48.9833 224.255 48.5333 224.522 48.2C224.789 47.8333 225.122 47.65 225.522 47.65C226.022 47.65 226.272 47.9167 226.272 48.45C226.272 48.7833 226.005 49.0833 225.472 49.35C225.305 49.45 225.222 49.6167 225.222 49.85C225.222 50.0833 225.422 50.35 225.822 50.65C226.189 50.9833 226.589 51.15 227.022 51.15C228.489 51.15 229.739 50.2333 230.772 48.4C231.839 46.5333 232.522 44.6833 232.822 42.85V42.7C229.589 44.9 227.405 46.3333 226.272 47L226.122 46.3C231.555 42.8 234.405 40.6833 234.672 39.95Z" fill="white"/>
</svg>
