<svg width="30" height="30" viewBox="0 0 30 30" fill="none" xmlns="http://www.w3.org/2000/svg">
<path fill-rule="evenodd" clip-rule="evenodd" d="M1.75403 14.9999C1.75403 11.4868 3.14959 8.11768 5.63369 5.63357C8.1178 3.14946 11.487 1.75391 15 1.75391C18.5131 1.75391 21.8823 3.14946 24.3664 5.63357C26.8505 8.11768 28.246 11.4868 28.246 14.9999C28.246 18.513 26.8505 21.8821 24.3664 24.3662C21.8823 26.8503 18.5131 28.2459 15 28.2459C11.487 28.2459 8.1178 26.8503 5.63369 24.3662C3.14959 21.8821 1.75403 18.513 1.75403 14.9999ZM15 3.65391C12.8009 3.65398 10.6491 4.29317 8.80655 5.49371C6.96399 6.69426 5.51003 8.40441 4.62157 10.4161C3.7331 12.4278 3.44842 14.6544 3.80216 16.8249C4.15589 18.9954 5.1328 21.0164 6.61403 22.6419C7.51314 21.2333 8.75289 20.074 10.2187 19.2714C11.6844 18.4688 13.3289 18.0487 15 18.0499C16.6712 18.0487 18.3156 18.4688 19.7814 19.2714C21.2472 20.074 22.4869 21.2333 23.386 22.6419C24.8673 21.0164 25.8442 18.9954 26.1979 16.8249C26.5516 14.6544 26.267 12.4278 25.3785 10.4161C24.49 8.40441 23.0361 6.69426 21.1935 5.49371C19.3509 4.29317 17.1992 3.65398 15 3.65391ZM21.964 23.9579C21.2568 22.7377 20.241 21.7251 19.0186 21.0216C17.7963 20.3181 16.4104 19.9485 15 19.9499C13.5897 19.9485 12.2038 20.3181 10.9814 21.0216C9.75909 21.7251 8.7433 22.7377 8.03603 23.9579C10.0257 25.509 12.4772 26.3496 15 26.3459C17.624 26.3459 20.04 25.4539 21.964 23.9579ZM10.3 13.0099C10.3 11.7634 10.7952 10.5679 11.6766 9.6865C12.558 8.80508 13.7535 8.30991 15 8.30991C16.2465 8.30991 17.442 8.80508 18.3234 9.6865C19.2049 10.5679 19.7 11.7634 19.7 13.0099C19.7 14.2564 19.2049 15.4519 18.3234 16.3333C17.442 17.2147 16.2465 17.7099 15 17.7099C13.7535 17.7099 12.558 17.2147 11.6766 16.3333C10.7952 15.4519 10.3 14.2564 10.3 13.0099ZM15 10.2099C14.6323 10.2099 14.2682 10.2823 13.9285 10.423C13.5888 10.5638 13.2801 10.77 13.0201 11.03C12.7601 11.29 12.5539 11.5987 12.4132 11.9384C12.2725 12.2781 12.2 12.6422 12.2 13.0099C12.2 13.3776 12.2725 13.7417 12.4132 14.0814C12.5539 14.4211 12.7601 14.7298 13.0201 14.9898C13.2801 15.2498 13.5888 15.4561 13.9285 15.5968C14.2682 15.7375 14.6323 15.8099 15 15.8099C15.7426 15.8099 16.4548 15.5149 16.9799 14.9898C17.505 14.4647 17.8 13.7525 17.8 13.0099C17.8 12.2673 17.505 11.5551 16.9799 11.03C16.4548 10.5049 15.7426 10.2099 15 10.2099Z" fill="#F0EDE5"/>
</svg>
